# xmcd
#
# Track frame offsets:
#	150
#	11354
#	29717
#	48248
#	59628
#	70238
#	89255
#	102077
#	110807
#	121629
#	137725
#	148361
#	160525
#	178277
#	194081
#
# Disc length: 2729 seconds
#
# Revision: 0
# Processed by: cddbd v1.5.2PL0 Copyright (c) Steve Scherf et al.
# Submitted via: audiograbber 1.83.01
#
DISCID=dd0aa70f
DTITLE=Montgomery - Nejlepsi Trampske Pisne
DYEAR=2006
DGENRE=Country
TTITLE0=Stara pacificka
TTITLE1=Montgomery
TTITLE2=Pisen domorodce
TTITLE3=Raj tulaku
TTITLE4=Zuzana
TTITLE5=Ascalona
TTITLE6=Chajda mala
TTITLE7=Cesta do osady
TTITLE8=Tramp kapitan
TTITLE9=Muj wigwam
TTITLE10=Na okor je cesta
TTITLE11=Aljaska (pri polarni zari)
TTITLE12=Mananalo
TTITLE13=Sbohem kapitane
TTITLE14=Ruty suty
EXTD=YEAR: 2006
EXTT0=
EXTT1=
EXTT2=
EXTT3=
EXTT4=
EXTT5=
EXTT6=
EXTT7=
EXTT8=
EXTT9=
EXTT10=
EXTT11=
EXTT12=
EXTT13=
EXTT14=
PLAYORDER=
